<mxfile host="app.diagrams.net" agent="Mozilla/5.0 (Windows NT 10.0; Win64; x64) AppleWebKit/537.36 (KHTML, like Gecko) Chrome/134.0.0.0 Safari/537.36" version="26.1.0">
  <diagram id="kgpKYQtTHZ0yAKxKKP6v" name="Page-1">
    <mxGraphModel dx="954" dy="558" grid="1" gridSize="10" guides="1" tooltips="1" connect="1" arrows="1" fold="1" page="1" pageScale="1" pageWidth="850" pageHeight="1100" math="0" shadow="0">
      <root>
        <mxCell id="0" />
        <mxCell id="1" parent="0" />
        <mxCell id="g1UFgbMDgLvSiYdy4ocw-1" value="simulate_turbie" style="rounded=1;whiteSpace=wrap;html=1;" parent="1" vertex="1">
          <mxGeometry x="375" y="215" width="120" height="60" as="geometry" />
        </mxCell>
        <mxCell id="g1UFgbMDgLvSiYdy4ocw-2" value="get_turbie_system_matricies" style="rounded=1;whiteSpace=wrap;html=1;" parent="1" vertex="1">
          <mxGeometry x="248.75" y="365" width="165" height="60" as="geometry" />
        </mxCell>
        <mxCell id="g1UFgbMDgLvSiYdy4ocw-3" value="load_wind&amp;nbsp;" style="rounded=1;whiteSpace=wrap;html=1;" parent="1" vertex="1">
          <mxGeometry x="430" y="365" width="120" height="60" as="geometry" />
        </mxCell>
        <mxCell id="g1UFgbMDgLvSiYdy4ocw-4" value="load_turbie_parameters" style="rounded=1;whiteSpace=wrap;html=1;" parent="1" vertex="1">
          <mxGeometry x="253.75" y="485" width="155" height="60" as="geometry" />
        </mxCell>
        <mxCell id="g1UFgbMDgLvSiYdy4ocw-5" value="calculate_ct" style="rounded=1;whiteSpace=wrap;html=1;" parent="1" vertex="1">
          <mxGeometry x="570" y="365" width="120" height="60" as="geometry" />
        </mxCell>
        <mxCell id="g1UFgbMDgLvSiYdy4ocw-6" value="calculate_dydt" style="rounded=1;whiteSpace=wrap;html=1;" parent="1" vertex="1">
          <mxGeometry x="710" y="365" width="120" height="60" as="geometry" />
        </mxCell>
        <mxCell id="g1UFgbMDgLvSiYdy4ocw-34" value="calculate_mean_stdv" style="rounded=1;whiteSpace=wrap;html=1;" parent="1" vertex="1">
          <mxGeometry x="458.75" y="800" width="120" height="60" as="geometry" />
        </mxCell>
        <mxCell id="g1UFgbMDgLvSiYdy4ocw-39" value="calculate_for_TI" style="rounded=1;whiteSpace=wrap;html=1;" parent="1" vertex="1">
          <mxGeometry x="357.5" y="670" width="120" height="60" as="geometry" />
        </mxCell>
        <mxCell id="g1UFgbMDgLvSiYdy4ocw-50" value="&lt;b&gt;&lt;font style=&quot;font-size: 16px;&quot;&gt;simulate_turbie function dependencies&lt;/font&gt;&lt;/b&gt;" style="text;html=1;align=center;verticalAlign=middle;resizable=0;points=[];autosize=1;strokeColor=none;fillColor=none;" parent="1" vertex="1">
          <mxGeometry x="265" y="130" width="320" height="30" as="geometry" />
        </mxCell>
        <mxCell id="Xd3-F2mCUXiF-xnBqhoO-5" value="" style="endArrow=classic;html=1;rounded=0;entryX=0.5;entryY=1;entryDx=0;entryDy=0;" edge="1" parent="1" source="g1UFgbMDgLvSiYdy4ocw-4" target="g1UFgbMDgLvSiYdy4ocw-2">
          <mxGeometry width="50" height="50" relative="1" as="geometry">
            <mxPoint x="330" y="475" as="sourcePoint" />
            <mxPoint x="326" y="419" as="targetPoint" />
          </mxGeometry>
        </mxCell>
        <mxCell id="Xd3-F2mCUXiF-xnBqhoO-6" value="load_turbie_parameters" style="rounded=1;whiteSpace=wrap;html=1;" vertex="1" parent="1">
          <mxGeometry x="40" y="365" width="155" height="60" as="geometry" />
        </mxCell>
        <mxCell id="Xd3-F2mCUXiF-xnBqhoO-7" value="" style="endArrow=classic;html=1;rounded=0;entryX=0.5;entryY=1;entryDx=0;entryDy=0;exitX=0.5;exitY=0;exitDx=0;exitDy=0;" edge="1" parent="1" source="Xd3-F2mCUXiF-xnBqhoO-6" target="g1UFgbMDgLvSiYdy4ocw-1">
          <mxGeometry width="50" height="50" relative="1" as="geometry">
            <mxPoint x="135" y="205" as="sourcePoint" />
            <mxPoint x="285" y="235" as="targetPoint" />
          </mxGeometry>
        </mxCell>
        <mxCell id="Xd3-F2mCUXiF-xnBqhoO-8" value="" style="endArrow=classic;html=1;rounded=0;entryX=0.5;entryY=1;entryDx=0;entryDy=0;exitX=0.5;exitY=0;exitDx=0;exitDy=0;" edge="1" parent="1" source="g1UFgbMDgLvSiYdy4ocw-2" target="g1UFgbMDgLvSiYdy4ocw-1">
          <mxGeometry width="50" height="50" relative="1" as="geometry">
            <mxPoint x="158" y="135" as="sourcePoint" />
            <mxPoint x="415" y="225" as="targetPoint" />
          </mxGeometry>
        </mxCell>
        <mxCell id="Xd3-F2mCUXiF-xnBqhoO-9" value="" style="endArrow=classic;html=1;rounded=0;entryX=0.5;entryY=1;entryDx=0;entryDy=0;exitX=0.5;exitY=0;exitDx=0;exitDy=0;" edge="1" parent="1" source="g1UFgbMDgLvSiYdy4ocw-3" target="g1UFgbMDgLvSiYdy4ocw-1">
          <mxGeometry width="50" height="50" relative="1" as="geometry">
            <mxPoint x="336" y="135" as="sourcePoint" />
            <mxPoint x="445" y="225" as="targetPoint" />
          </mxGeometry>
        </mxCell>
        <mxCell id="Xd3-F2mCUXiF-xnBqhoO-10" value="" style="endArrow=classic;html=1;rounded=0;entryX=0.5;entryY=1;entryDx=0;entryDy=0;exitX=0.5;exitY=0;exitDx=0;exitDy=0;" edge="1" parent="1" source="g1UFgbMDgLvSiYdy4ocw-5" target="g1UFgbMDgLvSiYdy4ocw-1">
          <mxGeometry width="50" height="50" relative="1" as="geometry">
            <mxPoint x="346" y="145" as="sourcePoint" />
            <mxPoint x="455" y="235" as="targetPoint" />
          </mxGeometry>
        </mxCell>
        <mxCell id="Xd3-F2mCUXiF-xnBqhoO-11" value="" style="endArrow=classic;html=1;rounded=0;entryX=0.5;entryY=1;entryDx=0;entryDy=0;exitX=0.5;exitY=0;exitDx=0;exitDy=0;" edge="1" parent="1" source="g1UFgbMDgLvSiYdy4ocw-6" target="g1UFgbMDgLvSiYdy4ocw-1">
          <mxGeometry width="50" height="50" relative="1" as="geometry">
            <mxPoint x="356" y="155" as="sourcePoint" />
            <mxPoint x="465" y="245" as="targetPoint" />
          </mxGeometry>
        </mxCell>
        <mxCell id="Xd3-F2mCUXiF-xnBqhoO-13" value="" style="endArrow=classic;html=1;rounded=0;entryX=0.5;entryY=1;entryDx=0;entryDy=0;" edge="1" parent="1" target="g1UFgbMDgLvSiYdy4ocw-39">
          <mxGeometry width="50" height="50" relative="1" as="geometry">
            <mxPoint x="323.75" y="800" as="sourcePoint" />
            <mxPoint x="128.75" y="950" as="targetPoint" />
          </mxGeometry>
        </mxCell>
        <mxCell id="Xd3-F2mCUXiF-xnBqhoO-15" value="" style="endArrow=classic;html=1;rounded=0;entryX=0.5;entryY=1;entryDx=0;entryDy=0;exitX=0.5;exitY=0;exitDx=0;exitDy=0;" edge="1" parent="1" source="g1UFgbMDgLvSiYdy4ocw-34" target="g1UFgbMDgLvSiYdy4ocw-39">
          <mxGeometry width="50" height="50" relative="1" as="geometry">
            <mxPoint x="138.75" y="980" as="sourcePoint" />
            <mxPoint x="208.75" y="1030" as="targetPoint" />
          </mxGeometry>
        </mxCell>
        <mxCell id="Xd3-F2mCUXiF-xnBqhoO-16" value="path_wind: str/path&lt;div&gt;path_parameters: str/path&amp;nbsp;&lt;/div&gt;&lt;div&gt;path_ct: str/path&amp;nbsp;&lt;/div&gt;" style="text;html=1;align=center;verticalAlign=middle;resizable=0;points=[];autosize=1;strokeColor=none;fillColor=none;" vertex="1" parent="1">
          <mxGeometry x="150" y="215" width="160" height="60" as="geometry" />
        </mxCell>
        <mxCell id="Xd3-F2mCUXiF-xnBqhoO-17" value="t: np.ndarray&amp;nbsp;&lt;div&gt;u: np.ndarray&amp;nbsp;&lt;/div&gt;&lt;div&gt;xb: np.ndarray&amp;nbsp;&lt;/div&gt;&lt;div&gt;xt: np.ndarray&lt;/div&gt;" style="text;html=1;align=center;verticalAlign=middle;resizable=0;points=[];autosize=1;strokeColor=none;fillColor=none;" vertex="1" parent="1">
          <mxGeometry x="550" y="210" width="100" height="70" as="geometry" />
        </mxCell>
        <mxCell id="Xd3-F2mCUXiF-xnBqhoO-19" value="" style="endArrow=classic;html=1;rounded=0;entryX=0;entryY=0.5;entryDx=0;entryDy=0;" edge="1" parent="1" target="g1UFgbMDgLvSiYdy4ocw-1">
          <mxGeometry width="50" height="50" relative="1" as="geometry">
            <mxPoint x="310" y="245" as="sourcePoint" />
            <mxPoint x="365" y="244.5" as="targetPoint" />
          </mxGeometry>
        </mxCell>
        <mxCell id="Xd3-F2mCUXiF-xnBqhoO-20" value="" style="endArrow=classic;html=1;rounded=0;" edge="1" parent="1">
          <mxGeometry width="50" height="50" relative="1" as="geometry">
            <mxPoint x="495" y="245" as="sourcePoint" />
            <mxPoint x="550" y="245" as="targetPoint" />
          </mxGeometry>
        </mxCell>
        <mxCell id="Xd3-F2mCUXiF-xnBqhoO-22" value="get_turbie_system_matricies" style="rounded=1;whiteSpace=wrap;html=1;" vertex="1" parent="1">
          <mxGeometry x="238.75" y="800" width="165" height="60" as="geometry" />
        </mxCell>
        <mxCell id="Xd3-F2mCUXiF-xnBqhoO-24" value="path_wind_files: str/path&amp;nbsp;&lt;div&gt;path_ct: str/path&lt;/div&gt;&lt;div&gt;turbie_params: str/path&lt;/div&gt;" style="text;html=1;align=center;verticalAlign=middle;resizable=0;points=[];autosize=1;strokeColor=none;fillColor=none;" vertex="1" parent="1">
          <mxGeometry x="140" y="670" width="160" height="60" as="geometry" />
        </mxCell>
        <mxCell id="Xd3-F2mCUXiF-xnBqhoO-25" value="blade_data: list&lt;div&gt;tower_data: list&lt;/div&gt;" style="text;html=1;align=center;verticalAlign=middle;resizable=0;points=[];autosize=1;strokeColor=none;fillColor=none;" vertex="1" parent="1">
          <mxGeometry x="550" y="680" width="100" height="40" as="geometry" />
        </mxCell>
        <mxCell id="Xd3-F2mCUXiF-xnBqhoO-26" value="" style="endArrow=classic;html=1;rounded=0;entryX=0;entryY=0.5;entryDx=0;entryDy=0;" edge="1" parent="1">
          <mxGeometry width="50" height="50" relative="1" as="geometry">
            <mxPoint x="288.75" y="699.5" as="sourcePoint" />
            <mxPoint x="353.75" y="699.5" as="targetPoint" />
          </mxGeometry>
        </mxCell>
        <mxCell id="Xd3-F2mCUXiF-xnBqhoO-27" value="" style="endArrow=classic;html=1;rounded=0;entryX=0;entryY=0.5;entryDx=0;entryDy=0;" edge="1" parent="1">
          <mxGeometry width="50" height="50" relative="1" as="geometry">
            <mxPoint x="477.5" y="699.5" as="sourcePoint" />
            <mxPoint x="542.5" y="699.5" as="targetPoint" />
          </mxGeometry>
        </mxCell>
        <mxCell id="Xd3-F2mCUXiF-xnBqhoO-28" value="&lt;b&gt;&lt;font style=&quot;font-size: 16px;&quot;&gt;calculate_for_TI function dependencies&lt;/font&gt;&lt;/b&gt;" style="text;html=1;align=center;verticalAlign=middle;resizable=0;points=[];autosize=1;strokeColor=none;fillColor=none;" vertex="1" parent="1">
          <mxGeometry x="250" y="610" width="320" height="30" as="geometry" />
        </mxCell>
      </root>
    </mxGraphModel>
  </diagram>
</mxfile>
